<svg width="600" height="400" xmlns="http://www.w3.org/2000/svg">
    <style>
        .background{fill:white}
        .board{fill:rgba(116,117,119,1);}
        .menuText{font: italic 40px serif; fill: slategrey;}
        .resetText{font: italic 25px serif; fill: slategrey;}
        .circle { stroke:green; stroke-width:5; fill:white;}
        .cross{ stroke:blue; stroke-width:5;}
        .field{ fill: white;}
        .winLine{stroke:red; stroke-width:3;}
        .reset{fill:rgba(79, 190, 28,0.8) ;}
    </style>
    <g id="gBackground">
        <rect id="background" class="background" width="600" height="320"  />
    </g>
    <g id="gBoard">
        <title>board</title>
        <rect id="board" class="board" width="320" height="320"  />
        <g id="fields" class="field" >
            <title>field</title>
            <rect id="field1"  width="100" height="100" x="0" y="0" />
            <rect id="field2"  width="100" height="100" x="110" y="0"  />
            <rect id="field3"  width="100" height="100" x="220" y="0"  />
            <rect id="field4"  width="100" height="100" x="0" y="110"  />
            <rect id="field5"  width="100" height="100" x="110" y="110"  />
            <rect id="field6"  width="100" height="100" x="220" y="110"  />
            <rect id="field7"  width="100" height="100" x="0" y="220"  />    
            <rect id="field8"  width="100" height="100" x="110" y="220"  />
            <rect id="field9"  width="100" height="100" x="220" y="220"  />
        </g>
    </g>
    <g id="menu">
        <g>
            <text x="340" y="40" class="menuText">
                Wybierz gracza
            </text>
        </g>
        <g>
            <title>circle</title>
            <rect id="field0"  width="80" height="80" x="410" y="60" class="field"/>
            <circle id ="circle0" cx="450" cy="100" r="30" class="circle" />    
        </g>
        <g id="cross0">
            <title>cross</title>
            <rect id="field0"  width="80" height="80" x="410" y="150" class="field" />
            <g class="cross" >
                <line x1="420" x2="480" y1="160" y2="220" />
                <line x1="480" x2="420" y1="160" y2="220" />    
            </g>
        </g>
        <g id="reset">
            <ellipse cx="450" cy="280" rx="60" ry="30" class="reset"/>    
            <text x="412" y="290" class="resetText">
                RESET
            </text>
        </g>
    </g>    
    <g id="circles" class="circle" >
        <title>circle</title>  
            <circle id ="circle1" cx="50" cy="50" r="30" />
            <circle id ="circle2" cx="160" cy="50" r="30" />
            <circle id ="circle3" cx="270" cy="50" r="30" />
            <circle id ="circle4" cx="50" cy="160" r="30" />
            <circle id ="circle5" cx="160" cy="160" r="30" />
            <circle id ="circle6" cx="270" cy="160" r="30" />
            <circle id ="circle7" cx="50" cy="270" r="30" />
            <circle id ="circle8" cx="160" cy="270" r="30" />
            <circle id ="circle9" cx="270" cy="270" r="30" />
    </g>
    <g id="crosses" class="cross" display="">
        <title>cross</title>
        <g id="cross1" >
            <line x1="20" x2="80" y1="20" y2="80" />
            <line x1="80" x2="20" y1="20" y2="80" />    
        </g>    
        <g id="cross2" >
            <line x1="130" x2="190" y1="20" y2="80" />
            <line x1="190" x2="130" y1="20" y2="80" />    
        </g>    
        <g id="cross3" >
            <line x1="240" x2="300" y1="20" y2="80" />
            <line x1="300" x2="240" y1="20" y2="80" />    
        </g>    
        <g id="cross4" >
            <line x1="20" x2="80" y1="130" y2="190" />
            <line x1="80" x2="20" y1="130" y2="190" />    
        </g>    
        <g id="cross5" >
            <line x1="130" x2="190" y1="130" y2="190" />
            <line x1="190" x2="130" y1="130" y2="190" />    
        </g>    
        <g id="cross6" >
            <line x1="240" x2="300" y1="130" y2="190" />
            <line x1="300" x2="240" y1="130" y2="190" />    
        </g>    
        <g id="cross7" >
            <line x1="20" x2="80" y1="240" y2="300" />
            <line x1="80" x2="20" y1="240" y2="300" />    
        </g>    
        <g id="cross8" >
            <line x1="130" x2="190" y1="240" y2="300" />
            <line x1="190" x2="130" y1="240" y2="300" />    
        </g>    
        <g id="cross9" >
            <line x1="240" x2="300" y1="240" y2="300" />
            <line x1="300" x2="240" y1="240" y2="300" />    
        </g>
    </g>  
    <g id="winLines" class="winLine" >
        <title>win line</title>
        <line id="winFields123" x1="10" x2="310" y1="50" y2="50" />  
        <line id="winFields456" x1="10" x2="310" y1="160" y2="160" />  
        <line id="winFields789" x1="10" x2="310" y1="270" y2="270" />  
        <line id="winFields147" x1="50" x2="50" y1="10" y2="310" />  
        <line id="winFields258" x1="160" x2="160" y1="10" y2="310" />  
        <line id="winFields369" x1="270" x2="270" y1="10" y2="310" />  
        <line id="winFields159" x1="10" x2="310" y1="10" y2="310" />  
        <line id="winFields357" x1="310" x2="10" y1="10" y2="310" />  
    </g>
</svg>