<svg width="600" height="400" xmlns="http://www.w3.org/2000/svg">
    <g id="gBackground">
        <title>background</title>
        <rect id="background" fill="white" width="600" height="320"  />
    </g>
    <g id="gBoard">
        <title>board</title>
        <rect id="board" fill="rgba(116,117,119,1)" width="320" height="320"  />
        <g id="fields" fill="white" >
            <title>field</title>
            <rect id="field1"  width="100" height="100" x="0" y="0" />
            <rect id="field2"  width="100" height="100" x="110" y="0"  />
            <rect id="field3"  width="100" height="100" x="220" y="0"  />
            <rect id="field4"  width="100" height="100" x="0" y="110"  />
            <rect id="field5"  width="100" height="100" x="110" y="110"  />
            <rect id="field6"  width="100" height="100" x="220" y="110"  />
            <rect id="field7"  width="100" height="100" x="0" y="220"  />    
            <rect id="field8"  width="100" height="100" x="110" y="220"  />
            <rect id="field9"  width="100" height="100" x="220" y="220"  />
        </g>
    </g>    
    <g id="circles" stroke="green" stroke-width="5" fill="white">
        <title>circle</title>  
            <circle id ="circle1" cx="50" cy="50" r="30" />
            <circle id ="circle2" cx="160" cy="50" r="30" />
            <circle id ="circle3" cx="270" cy="50" r="30" />
            <circle id ="circle4" cx="50" cy="160" r="30" />
            <circle id ="circle5" cx="160" cy="160" r="30" />
            <circle id ="circle6" cx="270" cy="160" r="30" />
            <circle id ="circle7" cx="50" cy="270" r="30" />
            <circle id ="circle8" cx="160" cy="270" r="30" />
            <circle id ="circle9" cx="270" cy="270" r="30" />
    </g>
    <g id="crosses" style="stroke:blue;stroke-width:5" display="">
        <title>cross</title>
        <g id="cross1" >
            <line x1="20" x2="80" y1="20" y2="80" />
            <line x1="80" x2="20" y1="20" y2="80" />    
        </g>    
        <g id="cross2" >
            <line x1="130" x2="190" y1="20" y2="80" />
            <line x1="190" x2="130" y1="20" y2="80" />    
        </g>    
        <g id="cross3" >
            <line x1="240" x2="300" y1="20" y2="80" />
            <line x1="300" x2="240" y1="20" y2="80" />    
        </g>    
        <g id="cross4" >
            <line x1="20" x2="80" y1="130" y2="190" />
            <line x1="80" x2="20" y1="130" y2="190" />    
        </g>    
        <g id="cross5" >
            <line x1="130" x2="190" y1="130" y2="190" />
            <line x1="190" x2="130" y1="130" y2="190" />    
        </g>    
        <g id="cross6" >
            <line x1="240" x2="300" y1="130" y2="190" />
            <line x1="300" x2="240" y1="130" y2="190" />    
        </g>    
        <g id="cross7" >
            <line x1="20" x2="80" y1="240" y2="300" />
            <line x1="80" x2="20" y1="240" y2="300" />    
        </g>    
        <g id="cross8" >
            <line x1="130" x2="190" y1="240" y2="300" />
            <line x1="190" x2="130" y1="240" y2="300" />    
        </g>    
        <g id="cross9" >
            <line x1="240" x2="300" y1="240" y2="300" />
            <line x1="300" x2="240" y1="240" y2="300" />    
        </g>
    </g>  
    <g id="winLines" style="stroke:red;stroke-width:3">
        <title>win line</title>
        <line id="winFields123" x1="10" x2="310" y1="50" y2="50" />  
        <line id="winFields456" x1="10" x2="310" y1="160" y2="160" />  
        <line id="winFields789" x1="10" x2="310" y1="270" y2="270" />  
        <line id="winFields147" x1="50" x2="50" y1="10" y2="310" />  
        <line id="winFields258" x1="160" x2="160" y1="10" y2="310" />  
        <line id="winFields369" x1="270" x2="270" y1="10" y2="310" />  
        <line id="winFields159" x1="10" x2="310" y1="10" y2="310" />  
        <line id="winFields357" x1="310" x2="10" y1="10" y2="310" />  
    </g>
</svg>